# xmcd
#
# Track frame offsets:
#	150
#	26054
#	56172
#	86088
#	109318
#	131995
#	160541
#	185326
#	212536
#	247104
#
# Disc length: 3671 seconds
#
# Revision: 1
# Processed by: cddbd v1.5.1PL0 Copyright (c) Steve Scherf et al.
# Submitted via: dBpowerAMP V4.0
#
DISCID=8e0e550a
DTITLE=Henry Fiol - Guapería
DYEAR=2004
DGENRE=Salsa
TTITLE0=De Guatamala a Guatamejor
TTITLE1=No Comprendo a las Mujeres
TTITLE2=De la Mano a la Boca
TTITLE3=Guapo Fantoma
TTITLE4=Chinas y Mandarinas
TTITLE5=El Huerfanito
TTITLE6=Motoríbale al Tambó
TTITLE7=Linda India
TTITLE8=No Te Bañes en el Yumurí
TTITLE9=Guapería
EXTD=
EXTT0=
EXTT1=
EXTT2=
EXTT3=
EXTT4=
EXTT5=
EXTT6=
EXTT7=
EXTT8=
EXTT9=
PLAYORDER=
